<?xml version="1.0" encoding="iso-8859-1"?>
<!-- Uploaded to: SVG Repo, www.svgrepo.com, Generator: SVG Repo Mixer Tools -->
<svg fill="#000000" height="800px" width="800px" version="1.1" id="Layer_1" xmlns="http://www.w3.org/2000/svg" xmlns:xlink="http://www.w3.org/1999/xlink" 
	 viewBox="0 0 512 512" xml:space="preserve">
<g>
	<g>
		<circle cx="255.994" cy="290.698" r="9.077"/>
	</g>
</g>
<g>
	<g>
		<circle cx="255.994" cy="258.235" r="9.077"/>
	</g>
</g>
<g>
	<g>
		<path d="M315.039,321.397c-1.676-4.136-6.066-6.498-10.445-5.633c-4.383,0.875-7.534,4.753-7.495,9.193
			c0,2.935-2.389,5.324-5.324,5.324c-1.786,0-3.445-0.89-4.439-2.381c-0.038-0.057-0.075-0.113-0.114-0.167l-0.492-0.701
			c-0.051-0.073-0.104-0.146-0.158-0.217c-4.656-6.215-12.064-9.775-19.834-9.496c-3.794,0.13-7.474,1.187-10.739,3.023
			c-3.265-1.835-6.945-2.892-10.74-3.023c-7.754-0.276-15.175,3.282-19.831,9.496c-0.054,0.072-0.106,0.144-0.158,0.217
			l-0.492,0.701c-0.039,0.056-0.077,0.112-0.115,0.167c-0.994,1.491-2.653,2.381-4.438,2.381c-2.936,0-5.325-2.389-5.325-5.295
			c0.04-4.467-3.11-8.346-7.492-9.221c-4.373-0.871-8.768,1.492-10.448,5.63c-1.817,4.482-2.739,9.225-2.739,14.098
			c0,10.079,3.99,19.562,11.237,26.702c7.248,7.142,16.769,11.019,26.878,10.84c8.79-0.13,17.116-3.326,23.664-8.863
			c6.547,5.537,14.874,8.732,23.662,8.863c0.191,0.003,0.381,0.005,0.571,0.005c9.872,0,19.197-3.837,26.308-10.844
			c7.246-7.138,11.237-16.621,11.237-26.702C317.778,330.622,316.856,325.88,315.039,321.397z M294.507,349.979
			c-3.951,3.893-9.1,6.013-14.586,5.909c-6.763-0.101-13.025-3.549-16.75-9.223c-1.585-2.414-4.28-3.869-7.169-3.869
			c-2.89,0-5.583,1.454-7.169,3.869c-3.725,5.675-9.987,9.124-16.75,9.223c-5.479,0.053-10.635-2.018-14.585-5.909
			c-1.004-0.989-1.893-2.06-2.662-3.196c1.728,0.427,3.533,0.653,5.391,0.653c7.495,0,14.458-3.707,18.646-9.924l0.348-0.497
			c1.314-1.697,3.284-2.634,5.449-2.553c1.822,0.064,3.562,0.925,4.776,2.363c1.629,1.931,4.028,3.046,6.555,3.046
			s4.926-1.115,6.555-3.046c1.214-1.44,2.955-2.301,4.776-2.363c2.159-0.057,4.136,0.855,5.45,2.553l0.349,0.496
			c4.19,6.217,11.151,9.925,18.647,9.925c1.858,0,3.664-0.226,5.391-0.653C296.4,347.918,295.511,348.989,294.507,349.979z"/>
	</g>
</g>
<g>
	<g>
		<path d="M336.041,275.887c4.736,0,8.576-3.839,8.576-8.576v-25.075c0-28.433-13.847-55.207-36.634-71.768V63.305
			c0-4.737-3.84-8.576-8.576-8.576c-4.272,0-7.747-3.475-7.747-7.746V16.309C291.661,7.316,284.344,0,275.352,0h-39.264
			c-8.993,0-16.309,7.316-16.309,16.309v30.674c0,4.271-3.475,7.746-7.747,7.746c-4.736,0-8.576,3.839-8.576,8.576V170.89
			c-22.464,16.588-36.073,43.088-36.073,71.347v228.063c0,22.992,18.706,41.699,41.699,41.699h93.837
			c22.992,0,41.698-18.706,41.698-41.699v-165.69c0-4.737-3.84-8.576-8.576-8.576s-8.576,3.839-8.576,8.576V470.3
			c0,13.535-11.011,24.547-24.546,24.547h-93.837c-13.535,0-24.547-11.013-24.547-24.547V242.237
			c0-24.798,12.991-47.925,34.046-60.896h74.825c21.044,12.962,34.059,36.148,34.059,60.896v25.075
			C327.465,272.048,331.305,275.887,336.041,275.887z M290.832,164.189h-70.224V70.358c9.516-3.502,16.323-12.659,16.323-23.375
			V17.152h37.578v29.831c0,10.716,6.807,19.873,16.323,23.375V164.189z"/>
	</g>
</g>
</svg>